<?xml version="1.0" encoding="UTF-8"?>
<svg xmlns="http://www.w3.org/2000/svg" xmlns:xlink="http://www.w3.org/1999/xlink" width="416.01pt" height="531.59pt" viewBox="0 0 416.01 531.59" version="1.1">
<defs>
<clipPath id="clip1">
  <path d="M 0 0 L 416.011719 0 L 416.011719 531.589844 L 0 531.589844 Z M 0 0 "/>
</clipPath>
<clipPath id="clip2">
  <path d="M 0 0 L 416.011719 0 L 416.011719 531.589844 L 0 531.589844 Z M 0 0 "/>
</clipPath>
</defs>
<g id="surface1">
<g clip-path="url(#clip1)" clip-rule="nonzero">
<path style=" stroke:none;fill-rule:nonzero;fill:rgb(13.299561%,12.199402%,12.199402%);fill-opacity:1;" d="M 23.097656 -0.00390625 L 392.894531 -0.00390625 C 405.65625 -0.00390625 416.011719 10.351563 416.011719 23.121094 L 416.011719 508.507813 C 416.011719 521.277344 405.65625 531.589844 392.894531 531.589844 L 23.097656 531.589844 C 10.339844 531.589844 0 521.277344 0 508.507813 L 0 23.121094 C 0 10.351563 10.339844 -0.00390625 23.097656 -0.00390625 C 10.339844 -0.00390625 0 10.351563 0 23.121094 L 0 508.507813 C 0 521.277344 10.339844 531.589844 23.097656 531.589844 L 392.894531 531.589844 C 405.65625 531.589844 416.011719 521.277344 416.011719 508.507813 L 416.011719 23.121094 C 416.011719 10.351563 405.65625 -0.00390625 392.894531 -0.00390625 L 23.097656 -0.00390625 "/>
</g>
<path style=" stroke:none;fill-rule:nonzero;fill:rgb(13.299561%,12.199402%,12.199402%);fill-opacity:1;" d="M 180.148438 430.574219 C 168.585938 430.574219 165.242188 439.574219 164.980469 444.75 L 194.640625 444.75 C 192.976563 435.449219 188.996094 430.574219 180.148438 430.574219 "/>
<path style=" stroke:none;fill-rule:nonzero;fill:rgb(13.299561%,12.199402%,12.199402%);fill-opacity:1;" d="M 383.953125 400.386719 L 380.171875 400.386719 L 380.171875 404.796875 L 383.953125 404.796875 C 385.488281 404.796875 386.324219 404.125 386.324219 402.554688 C 386.324219 401.03125 385.488281 400.386719 383.953125 400.386719 "/>
<path style=" stroke:none;fill-rule:nonzero;fill:rgb(13.299561%,12.199402%,12.199402%);fill-opacity:1;" d="M 347.355469 430.574219 C 335.042969 430.574219 331.3125 441.242188 331.3125 451.957031 C 331.3125 462.558594 335.042969 473.28125 347.355469 473.28125 C 359.816406 473.28125 363.53125 462.558594 363.53125 451.957031 C 363.53125 441.242188 359.816406 430.574219 347.355469 430.574219 "/>
<path style=" stroke:none;fill-rule:nonzero;fill:rgb(13.299561%,12.199402%,12.199402%);fill-opacity:1;" d="M 382.792969 394.90625 C 376.847656 394.90625 372.050781 399.703125 372.035156 405.648438 C 372.050781 411.597656 376.847656 416.394531 382.792969 416.394531 C 385.679688 416.394531 388.296875 415.253906 390.226563 413.402344 L 386.796875 413.402344 C 386.371094 412.40625 386.417969 410.882813 386.246094 409.640625 C 386.011719 407.996094 385.363281 407.246094 383.628906 407.246094 L 380.171875 407.246094 L 380.171875 413.402344 L 376.710938 413.402344 L 376.710938 397.6875 L 385.1875 397.6875 C 388.003906 397.6875 389.785156 399.636719 389.785156 402.027344 C 389.785156 403.867188 389.035156 405.265625 387.300781 405.96875 L 387.300781 406.003906 C 389 406.4375 389.480469 408.101563 389.585938 409.675781 C 389.660156 410.664063 389.632813 412.484375 390.246094 413.386719 C 392.273438 411.433594 393.542969 408.695313 393.546875 405.648438 C 393.535156 399.703125 388.730469 394.90625 382.792969 394.90625 "/>
<g clip-path="url(#clip2)" clip-rule="nonzero">
<path style=" stroke:none;fill-rule:nonzero;fill:rgb(13.299561%,12.199402%,12.199402%);fill-opacity:1;" d="M 392.894531 -0.00390625 L 23.097656 -0.00390625 C 10.339844 -0.00390625 0 10.351563 0 23.121094 L 0 508.507813 C 0 521.277344 10.339844 531.589844 23.097656 531.589844 L 392.894531 531.589844 C 405.65625 531.589844 416.011719 521.277344 416.011719 508.507813 L 416.011719 23.121094 C 416.011719 10.351563 405.65625 -0.00390625 392.894531 -0.00390625 Z M 136.472656 485.261719 L 118.242188 485.261719 L 118.242188 447.472656 C 118.242188 438.5625 117.480469 431.195313 107.074219 431.195313 C 96.820313 431.195313 94.898438 439.699219 94.898438 448.09375 L 94.898438 485.261719 L 76.667969 485.261719 L 76.667969 447.824219 C 76.667969 440.097656 77.175781 431.195313 65.632813 431.195313 C 62.03125 431.195313 53.308594 433.511719 53.308594 446.546875 L 53.308594 485.261719 L 35.078125 485.261719 L 35.078125 418.550781 L 52.277344 418.550781 L 52.277344 427.59375 L 52.539063 427.59375 C 57.285156 420.757813 64.214844 416.757813 72.816406 416.757813 C 81.152344 416.757813 88.605469 419.832031 92.191406 427.855469 C 96.050781 422.027344 102.980469 416.757813 112.210938 416.757813 C 126.332031 416.757813 136.472656 423.339844 136.472656 440.632813 Z M 212.867188 456.34375 L 164.980469 456.34375 C 165.503906 467.96875 171.148438 473.28125 181.285156 473.28125 C 188.609375 473.28125 194.507813 468.753906 195.664063 464.628906 L 211.707031 464.628906 C 206.570313 480.335938 195.664063 487.054688 180.648438 487.054688 C 159.734375 487.054688 146.773438 472.617188 146.773438 451.957031 C 146.773438 431.980469 160.496094 416.757813 180.648438 416.757813 C 203.230469 416.757813 214.152344 435.84375 212.867188 456.34375 Z M 259.5625 430.792969 L 246.214844 430.792969 L 246.214844 463.835938 C 246.214844 470.023438 247.746094 471.558594 253.90625 471.558594 C 255.832031 471.558594 257.640625 471.429688 259.5625 471.085938 L 259.5625 485.386719 C 256.484375 485.910156 252.507813 486.039063 248.902344 486.039063 C 237.75 486.039063 227.980469 483.453125 227.980469 470.160156 L 227.980469 430.792969 L 216.949219 430.792969 L 216.949219 418.550781 L 227.980469 418.550781 L 227.980469 398.550781 L 246.214844 398.550781 L 246.214844 418.550781 L 259.5625 418.550781 Z M 310.660156 434.4375 C 308.980469 434.050781 306.289063 433.789063 304.105469 433.789063 C 290.753906 433.789063 286.136719 443.4375 286.136719 455.199219 L 286.136719 485.261719 L 267.910156 485.261719 L 267.910156 418.550781 L 285.238281 418.550781 L 285.238281 430.941406 L 285.5 430.941406 C 288.828125 422.550781 297.8125 416.757813 306.660156 416.757813 C 307.953125 416.757813 309.503906 417.019531 310.660156 417.40625 Z M 242.667969 381.390625 L 173.316406 381.390625 L 103.980469 138.695313 L 103.980469 381.390625 L 34.648438 381.390625 L 34.648438 34.652344 L 138.65625 34.652344 L 207.992188 265.8125 L 277.328125 34.652344 L 381.339844 34.652344 L 381.339844 381.390625 L 312.003906 381.390625 L 312.003906 138.695313 Z M 347.355469 487.054688 C 326.566406 487.054688 313.105469 473.152344 313.105469 451.957031 C 313.105469 430.660156 326.566406 416.757813 347.355469 416.757813 C 368.277344 416.757813 381.753906 430.660156 381.753906 451.957031 C 381.753906 473.152344 368.277344 487.054688 347.355469 487.054688 Z M 382.792969 417.957031 C 375.992188 417.957031 370.480469 412.441406 370.480469 405.648438 C 370.480469 398.863281 375.992188 393.347656 382.792969 393.347656 C 389.597656 393.347656 395.109375 398.863281 395.109375 405.648438 C 395.109375 412.441406 389.597656 417.957031 382.792969 417.957031 "/>
</g>
</g>
</svg>
